# xmcd CD database file
#
# Track frame offsets:
#	150
#	21863
#	37727
#	57118
#
# Disc length: 1088 seconds
#
# Revision: 0
# Processed by: cddbd v1.5.2PL0 Copyright (c) Steve Scherf et al.
# Submitted via: CDex 1.70beta2
#
DISCID=24043e04
DTITLE=Kevin Johnson - White Christmas
DYEAR=1999
DGENRE=Country
TTITLE0=When A Child Is Born
TTITLE1=White Christmas (Radio Version)
TTITLE2=White Christmas (Long Version)
TTITLE3=Rock And Roll
EXTD=YEAR: 1999
EXTT0=
EXTT1=
EXTT2=
EXTT3=
PLAYORDER=
